<mxfile host="app.diagrams.net" agent="Mozilla/5.0 (Windows NT 10.0; Win64; x64) AppleWebKit/537.36 (KHTML, like Gecko) Chrome/135.0.0.0 Safari/537.36" version="26.2.10">
  <diagram name="Page-1" id="CSG7D7Ea1QbwN5exvu9q">
    <mxGraphModel dx="1884" dy="939" grid="1" gridSize="10" guides="1" tooltips="1" connect="1" arrows="1" fold="1" page="1" pageScale="1" pageWidth="827" pageHeight="1169" math="1" shadow="0">
      <root>
        <mxCell id="0" />
        <mxCell id="1" parent="0" />
        <mxCell id="d8plN4O3uEQoF3Whc2Uv-3" style="edgeStyle=orthogonalEdgeStyle;rounded=0;orthogonalLoop=1;jettySize=auto;html=1;entryX=0.5;entryY=0;entryDx=0;entryDy=0;" edge="1" parent="1" source="d8plN4O3uEQoF3Whc2Uv-1" target="d8plN4O3uEQoF3Whc2Uv-2">
          <mxGeometry relative="1" as="geometry" />
        </mxCell>
        <mxCell id="d8plN4O3uEQoF3Whc2Uv-1" value="Start" style="rounded=1;whiteSpace=wrap;html=1;" vertex="1" parent="1">
          <mxGeometry x="353" y="80" width="120" height="60" as="geometry" />
        </mxCell>
        <mxCell id="d8plN4O3uEQoF3Whc2Uv-5" style="edgeStyle=orthogonalEdgeStyle;rounded=0;orthogonalLoop=1;jettySize=auto;html=1;entryX=0.5;entryY=0;entryDx=0;entryDy=0;" edge="1" parent="1" source="d8plN4O3uEQoF3Whc2Uv-2" target="d8plN4O3uEQoF3Whc2Uv-4">
          <mxGeometry relative="1" as="geometry" />
        </mxCell>
        <mxCell id="d8plN4O3uEQoF3Whc2Uv-2" value="Input PSD points and number of required samples \(s_{max}\), the time step \(dt\) and number of steps \(n_{max}\)" style="shape=parallelogram;perimeter=parallelogramPerimeter;whiteSpace=wrap;html=1;fixedSize=1;" vertex="1" parent="1">
          <mxGeometry x="280" y="170" width="268" height="60" as="geometry" />
        </mxCell>
        <mxCell id="d8plN4O3uEQoF3Whc2Uv-7" style="edgeStyle=orthogonalEdgeStyle;rounded=0;orthogonalLoop=1;jettySize=auto;html=1;entryX=0.5;entryY=0;entryDx=0;entryDy=0;" edge="1" parent="1" source="d8plN4O3uEQoF3Whc2Uv-4" target="d8plN4O3uEQoF3Whc2Uv-6">
          <mxGeometry relative="1" as="geometry" />
        </mxCell>
        <mxCell id="d8plN4O3uEQoF3Whc2Uv-4" value="Generate a frequency randomly from within PSD range." style="rounded=0;whiteSpace=wrap;html=1;" vertex="1" parent="1">
          <mxGeometry x="284" y="270" width="260" height="60" as="geometry" />
        </mxCell>
        <mxCell id="d8plN4O3uEQoF3Whc2Uv-9" style="edgeStyle=orthogonalEdgeStyle;rounded=0;orthogonalLoop=1;jettySize=auto;html=1;entryX=0.5;entryY=0;entryDx=0;entryDy=0;" edge="1" parent="1" source="d8plN4O3uEQoF3Whc2Uv-6" target="d8plN4O3uEQoF3Whc2Uv-8">
          <mxGeometry relative="1" as="geometry" />
        </mxCell>
        <mxCell id="d8plN4O3uEQoF3Whc2Uv-6" value="Find the expected amplitude at that frequency by linearly interpolating between the two adjacent PSD vertex points." style="rounded=0;whiteSpace=wrap;html=1;" vertex="1" parent="1">
          <mxGeometry x="289" y="370" width="250" height="60" as="geometry" />
        </mxCell>
        <mxCell id="d8plN4O3uEQoF3Whc2Uv-11" style="edgeStyle=orthogonalEdgeStyle;rounded=0;orthogonalLoop=1;jettySize=auto;html=1;entryX=0.5;entryY=0;entryDx=0;entryDy=0;" edge="1" parent="1" source="d8plN4O3uEQoF3Whc2Uv-8" target="d8plN4O3uEQoF3Whc2Uv-10">
          <mxGeometry relative="1" as="geometry" />
        </mxCell>
        <mxCell id="d8plN4O3uEQoF3Whc2Uv-8" value="Generate a random phase for this signal, expressing the signal as a sin wave with." style="rounded=0;whiteSpace=wrap;html=1;" vertex="1" parent="1">
          <mxGeometry x="290" y="460" width="250" height="60" as="geometry" />
        </mxCell>
        <mxCell id="d8plN4O3uEQoF3Whc2Uv-13" style="edgeStyle=orthogonalEdgeStyle;rounded=0;orthogonalLoop=1;jettySize=auto;html=1;entryX=0.5;entryY=0;entryDx=0;entryDy=0;" edge="1" parent="1" source="d8plN4O3uEQoF3Whc2Uv-10" target="d8plN4O3uEQoF3Whc2Uv-12">
          <mxGeometry relative="1" as="geometry" />
        </mxCell>
        <mxCell id="d8plN4O3uEQoF3Whc2Uv-10" value="Calculate the value of the signal at every time step within the simulation period." style="rounded=0;whiteSpace=wrap;html=1;" vertex="1" parent="1">
          <mxGeometry x="290" y="555" width="250" height="60" as="geometry" />
        </mxCell>
        <mxCell id="d8plN4O3uEQoF3Whc2Uv-17" style="edgeStyle=orthogonalEdgeStyle;rounded=0;orthogonalLoop=1;jettySize=auto;html=1;entryX=0.5;entryY=0;entryDx=0;entryDy=0;" edge="1" parent="1" source="d8plN4O3uEQoF3Whc2Uv-12" target="d8plN4O3uEQoF3Whc2Uv-16">
          <mxGeometry relative="1" as="geometry" />
        </mxCell>
        <mxCell id="d8plN4O3uEQoF3Whc2Uv-12" value="Sum this signal with all other previously generated signals at every time step to find overall signal." style="rounded=0;whiteSpace=wrap;html=1;" vertex="1" parent="1">
          <mxGeometry x="290" y="650" width="250" height="60" as="geometry" />
        </mxCell>
        <mxCell id="d8plN4O3uEQoF3Whc2Uv-19" style="edgeStyle=orthogonalEdgeStyle;rounded=0;orthogonalLoop=1;jettySize=auto;html=1;" edge="1" parent="1" source="d8plN4O3uEQoF3Whc2Uv-14">
          <mxGeometry relative="1" as="geometry">
            <mxPoint x="415" y="250" as="targetPoint" />
            <Array as="points">
              <mxPoint x="680" y="880" />
              <mxPoint x="680" y="250" />
            </Array>
          </mxGeometry>
        </mxCell>
        <mxCell id="d8plN4O3uEQoF3Whc2Uv-24" style="edgeStyle=orthogonalEdgeStyle;rounded=0;orthogonalLoop=1;jettySize=auto;html=1;entryX=0.5;entryY=0;entryDx=0;entryDy=0;" edge="1" parent="1" source="d8plN4O3uEQoF3Whc2Uv-14" target="d8plN4O3uEQoF3Whc2Uv-23">
          <mxGeometry relative="1" as="geometry" />
        </mxCell>
        <mxCell id="d8plN4O3uEQoF3Whc2Uv-14" value="Does \(s = s_{max}\)?" style="rhombus;whiteSpace=wrap;html=1;" vertex="1" parent="1">
          <mxGeometry x="353" y="820" width="124" height="120" as="geometry" />
        </mxCell>
        <mxCell id="d8plN4O3uEQoF3Whc2Uv-18" style="edgeStyle=orthogonalEdgeStyle;rounded=0;orthogonalLoop=1;jettySize=auto;html=1;" edge="1" parent="1" source="d8plN4O3uEQoF3Whc2Uv-16" target="d8plN4O3uEQoF3Whc2Uv-14">
          <mxGeometry relative="1" as="geometry" />
        </mxCell>
        <mxCell id="d8plN4O3uEQoF3Whc2Uv-16" value="Increment counter \(s\)" style="rounded=0;whiteSpace=wrap;html=1;" vertex="1" parent="1">
          <mxGeometry x="355" y="740" width="120" height="60" as="geometry" />
        </mxCell>
        <mxCell id="d8plN4O3uEQoF3Whc2Uv-21" value="No" style="text;html=1;align=center;verticalAlign=middle;resizable=0;points=[];autosize=1;strokeColor=none;fillColor=none;" vertex="1" parent="1">
          <mxGeometry x="539" y="850" width="40" height="30" as="geometry" />
        </mxCell>
        <mxCell id="d8plN4O3uEQoF3Whc2Uv-22" value="Yes" style="text;html=1;align=center;verticalAlign=middle;resizable=0;points=[];autosize=1;strokeColor=none;fillColor=none;" vertex="1" parent="1">
          <mxGeometry x="430" y="930" width="40" height="30" as="geometry" />
        </mxCell>
        <mxCell id="d8plN4O3uEQoF3Whc2Uv-23" value="End" style="rounded=1;whiteSpace=wrap;html=1;" vertex="1" parent="1">
          <mxGeometry x="355" y="960" width="120" height="60" as="geometry" />
        </mxCell>
      </root>
    </mxGraphModel>
  </diagram>
</mxfile>
